<?xml version="1.0" encoding="UTF-8" standalone="no"?>
<svg
   xmlns:dc="http://purl.org/dc/elements/1.1/"
   xmlns:cc="http://creativecommons.org/ns#"
   xmlns:rdf="http://www.w3.org/1999/02/22-rdf-syntax-ns#"
   xmlns:svg="http://www.w3.org/2000/svg"
   xmlns="http://www.w3.org/2000/svg"
   version="1.1"
   id="svg2"
   viewBox="0 0 35.428489 35.428491"
   height="35.42849"
   width="35.42849">
  <defs
     id="defs4" />
  <metadata
     id="metadata7">
    <rdf:RDF>
      <cc:Work
         rdf:about="">
        <dc:format>image/svg+xml</dc:format>
        <dc:type
           rdf:resource="http://purl.org/dc/dcmitype/StillImage" />
        <dc:title></dc:title>
      </cc:Work>
    </rdf:RDF>
  </metadata>
  <g
     style="fill:#ffffff;fill-opacity:1"
     transform="translate(-124.23618,-270.41292)"
     id="layer1">
    <g
       id="flowRoot4178"
       style="font-style:normal;font-variant:normal;font-weight:normal;font-stretch:normal;font-size:30.22875023px;line-height:125%;font-family:Lato;-inkscape-font-specification:Lato;text-align:start;letter-spacing:0px;word-spacing:0px;writing-mode:lr-tb;text-anchor:start;fill:#ffffff;fill-opacity:1;stroke:none;stroke-width:1px;stroke-linecap:butt;stroke-linejoin:miter;stroke-opacity:1"
       transform="translate(6.4285717,-23.75)">
      <path
         id="path4179"
         style="font-style:normal;font-variant:normal;font-weight:normal;font-stretch:normal;font-family:Lato;-inkscape-font-specification:Lato;fill:#ffffff;fill-opacity:1"
         d="M 123.74756,309.44435 L 122.22101,305.21233 Q 122.05475,304.75889 121.85826,304.45661 Q 121.66178,304.1392 121.38972,303.95783 Q 121.11766,303.76135 120.7398,303.68577 Q 120.36194,303.59509 119.83294,303.59509 L 118.7447,303.59509 L 118.7447,302.59754 Q 118.7447,302.38594 118.82027,302.20456 Q 118.89585,302.02319 119.07722,301.88716 Q 119.27371,301.75113 119.60622,301.67556 Q 119.93874,301.58488 120.45263,301.58488 Q 121.10254,301.58488 121.70712,301.70579 Q 122.31169,301.82671 122.8407,302.12899 Q 123.3697,302.41617 123.7929,302.91494 Q 124.21611,303.41371 124.48816,304.16943 L 130.413,319.9035 Q 130.74552,320.79525 131.21406,321.18822 Q 131.69772,321.58119 132.55924,321.58119 L 133.48122,321.58119 L 133.48122,322.66943 Q 133.48122,323.24378 133.13359,323.42515 Q 132.78596,323.59141 132.10581,323.59141 Q 131.50123,323.59141 130.91177,323.47049 Q 130.33743,323.36469 129.80842,323.04729 Q 129.29454,322.72989 128.85622,322.17065 Q 128.4179,321.61142 128.1005,320.71967 L 125.34968,313.63103 Q 125.22877,313.31363 125.1532,313.02646 Q 125.07763,312.73928 125.0474,312.46723 Q 124.97182,312.73928 124.88114,313.01134 Q 124.80557,313.2834 124.68465,313.58569 L 120.93629,322.88103 Q 120.8456,323.09263 120.634,323.274 Q 120.43751,323.44026 120.08988,323.44026 L 117.80761,323.44026 L 123.74756,309.44435 Z" />
    </g>
    <g
       id="flowRoot4186"
       style="font-style:normal;font-variant:normal;font-weight:normal;font-stretch:normal;font-size:30.22875023px;line-height:125%;font-family:Lato;-inkscape-font-specification:Lato;text-align:start;letter-spacing:0px;word-spacing:0px;writing-mode:lr-tb;text-anchor:start;fill:#ffffff;fill-opacity:1;stroke:none;stroke-width:1px;stroke-linecap:butt;stroke-linejoin:miter;stroke-opacity:1"
       transform="matrix(0.49735446,0,0,0.49735446,81.342902,126.77529)" />
    <g
       id="flowRoot4194"
       style="font-style:normal;font-variant:normal;font-weight:normal;font-stretch:normal;font-size:30.22875023px;line-height:125%;font-family:Lato;-inkscape-font-specification:Lato;text-align:start;letter-spacing:0px;word-spacing:0px;writing-mode:lr-tb;text-anchor:start;fill:#ffffff;fill-opacity:1;stroke:none;stroke-width:1px;stroke-linecap:butt;stroke-linejoin:miter;stroke-opacity:1"
       transform="matrix(0.49735446,0,0,0.49735446,78.128617,126.59672)">
      <path
         id="path4183"
         style="font-style:normal;font-variant:normal;font-weight:normal;font-stretch:normal;font-family:Lato;-inkscape-font-specification:Lato;fill:#ffffff;fill-opacity:1"
         d="M 118.82027,321.77768 Q 118.82027,321.38471 118.9563,321.03708 Q 119.10745,320.68945 119.34928,320.4325 Q 119.60622,320.17556 119.95385,320.02441 Q 120.30148,319.87327 120.69446,319.87327 Q 121.08743,319.87327 121.43506,320.02441 Q 121.78269,320.17556 122.03964,320.4325 Q 122.29658,320.68945 122.44772,321.03708 Q 122.59887,321.38471 122.59887,321.77768 Q 122.59887,322.18577 122.44772,322.5334 Q 122.29658,322.86592 122.03964,323.12286 Q 121.78269,323.3798 121.43506,323.51583 Q 121.08743,323.66698 120.69446,323.66698 Q 120.30148,323.66698 119.95385,323.51583 Q 119.60622,323.3798 119.34928,323.12286 Q 119.10745,322.86592 118.9563,322.5334 Q 118.82027,322.18577 118.82027,321.77768 Z" />
      <path
         id="path4185"
         style="font-style:normal;font-variant:normal;font-weight:normal;font-stretch:normal;font-family:Lato;-inkscape-font-specification:Lato;fill:#ffffff;fill-opacity:1"
         d="M 126.41761,323.44026 L 126.41761,308.1294 L 128.03485,308.1294 Q 128.60919,308.1294 128.74522,308.68863 L 128.94171,310.26053 Q 129.78811,309.21763 130.84612,308.5526 Q 131.90413,307.88757 133.29465,307.88757 Q 134.83632,307.88757 135.78852,308.74909 Q 136.75584,309.61061 137.17904,311.0767 Q 137.51156,310.24541 138.02545,309.64084 Q 138.55445,309.03626 139.20437,308.64329 Q 139.85429,308.25031 140.57978,308.06894 Q 141.32038,307.88757 142.0761,307.88757 Q 143.28525,307.88757 144.22234,308.28054 Q 145.17455,308.6584 145.82447,309.39901 Q 146.4895,310.13961 146.83713,311.22785 Q 147.18476,312.30097 147.18476,313.69149 L 147.18476,323.44026 L 144.47929,323.44026 L 144.47929,313.69149 Q 144.47929,311.89288 143.69334,310.9709 Q 142.90739,310.03381 141.42618,310.03381 Q 140.76115,310.03381 140.15658,310.27564 Q 139.56712,310.50236 139.11368,310.95579 Q 138.66025,311.40922 138.38819,312.10448 Q 138.13125,312.78463 138.13125,313.69149 L 138.13125,323.44026 L 135.42578,323.44026 L 135.42578,313.69149 Q 135.42578,311.84754 134.68517,310.94067 Q 133.94457,310.03381 132.52382,310.03381 Q 131.52627,310.03381 130.67986,310.57793 Q 129.83346,311.10693 129.12308,312.02891 L 129.12308,323.44026 L 126.41761,323.44026 Z" />
      <path
         id="path4187"
         style="font-style:normal;font-variant:normal;font-weight:normal;font-stretch:normal;font-family:Lato;-inkscape-font-specification:Lato;fill:#ffffff;fill-opacity:1"
         d="M 162.33739,323.44026 Q 161.76305,323.44026 161.6119,322.88103 L 161.37007,321.02196 Q 160.38764,322.216 159.11803,322.94149 Q 157.86354,323.65186 156.23119,323.65186 Q 154.91624,323.65186 153.84311,323.15309 Q 152.76999,322.6392 152.01428,321.65677 Q 151.25856,320.67433 150.85047,319.20824 Q 150.44238,317.74214 150.44238,315.83773 Q 150.44238,314.14492 150.89581,312.69394 Q 151.34924,311.22785 152.19565,310.15473 Q 153.04205,309.08161 154.26632,308.47703 Q 155.5057,307.85734 157.04736,307.85734 Q 158.453,307.85734 159.45055,308.341 Q 160.46321,308.80955 161.24916,309.67107 L 161.24916,301.17679 L 163.93952,301.17679 L 163.93952,323.44026 L 162.33739,323.44026 Z M 157.10782,321.47539 Q 158.43788,321.47539 159.42032,320.87082 Q 160.41787,320.26624 161.24916,319.16289 L 161.24916,311.77196 Q 160.49344,310.77442 159.61681,310.36633 Q 158.74017,309.95824 157.65194,309.95824 Q 155.52081,309.95824 154.37212,311.48479 Q 153.22343,313.01134 153.22343,315.83773 Q 153.22343,317.33405 153.48037,318.40718 Q 153.73731,319.46518 154.23609,320.16044 Q 154.73486,320.84059 155.46035,321.15799 Q 156.18584,321.47539 157.10782,321.47539 Z" />
    </g>
  </g>
</svg>
